<svg width="119" height="20" fill="none" xmlns="http://www.w3.org/2000/svg"><path d="M35.666 2.972c.027.028.027.028.055.028-.028 0-.028-.028-.055-.028Zm1.45 10.25c-1.04 1.945-2.517 3.417-4.187 4.111a5.1 5.1 0 0 1-2.243.528c-.63 0-1.26-.139-1.834-.389-.164-.083-.355-.194-.575-.305l-.109-.111c-2.654-1.806-3.201-6.417-1.177-10.223 1.013-1.944 2.49-3.416 4.187-4.139.766-.36 1.505-.527 2.244-.527.657 0 1.286.139 1.833.389l.438.25c.028 0 .055.027.055.027l.082.028.11.111c1.56 1.056 2.435 3.111 2.407 5.528l1.615.028c-.383-2.556-1.779-4.778-3.804-6.111l-.027-.028c-.027 0-.027-.028-.055-.028l-.054-.028a7.274 7.274 0 0 0-3.968-1.166c-4.433 0-8.018 3.972-8.018 8.86 0 2.862 1.231 5.529 3.338 7.168.192.166.302.25.438.333.137.11.247.167.356.25.164.083.329.194.493.25a7.3 7.3 0 0 0 3.393.833c3.776 0 7.06-2.917 7.853-6.972l-2.244.056c-.164.444-.355.888-.547 1.277ZM43.198 18.889V1.139H41.5v17.75h1.697ZM52.352 9.944c3.092-.194 5.39-2.277 5.39-4.555 0-3-3.474-4.25-6.73-4.25H45.455v17.694h1.806v-8.805c3.995 0 8.483.11 8.483 8.722v.083h1.998v-.027c0-4.612-1.642-7.695-5.391-8.862Zm-5.09-.5V1.75h4.734c1.505.056 2.9.75 3.448 2.083.821 1.945-.3 4.25-2.49 5.223-.575.25-1.204.36-1.779.388h-3.913ZM70.459 2.972c.027.028.027.028.054.028-.027 0-.027-.028-.054-.028Zm1.45 10.25c-1.04 1.945-2.518 3.417-4.187 4.111a5.1 5.1 0 0 1-2.244.528c-.629 0-1.258-.139-1.833-.389-.164-.083-.356-.194-.575-.305l-.11-.111c-2.653-1.806-3.2-6.417-1.176-10.223 1.013-1.944 2.49-3.416 4.187-4.139.766-.36 1.505-.527 2.244-.527.656 0 1.286.139 1.833.389l.438.25c.027 0 .055.027.055.027l.082.028.11.111c1.559 1.056 2.435 3.111 2.407 5.528l1.615.028c-.383-2.556-1.779-4.778-3.804-6.111l-.027-.028c-.028 0-.028-.028-.055-.028l-.055-.028a7.274 7.274 0 0 0-3.967-1.166c-4.433 0-8.018 3.972-8.018 8.86 0 2.862 1.231 5.529 3.338 7.168.192.166.301.25.438.333.137.11.246.167.356.25.164.083.328.194.492.25a7.3 7.3 0 0 0 3.394.833c3.776 0 7.06-2.917 7.853-6.972l-2.244.056c-.164.444-.356.888-.547 1.277ZM88.8 1.806v-.64H76.293v17.695H88.8v-.666H77.963v-7.806h9.797v-.722h-9.797V1.806H88.8Z" fill="#fff"/><path d="m102.779 1.111-5.91 9.722v.028l-.028-.028-5.883-9.722h-2.19l6.842 10.333v7.417h1.697v-7.417l6.84-10.333h-1.368ZM111.257 1.139h-2.381l-7.197 17.722h1.505l2.381-6.417h8.127l2.381 6.417h2.408L111.257 1.14Zm-5.419 10.583 3.804-10.194 3.776 10.194h-7.58Z" fill="#fff"/><mask id="a" fill="#fff"><path d="M12.929 12.929a4.142 4.142 0 1 1-5.858 5.858 4.142 4.142 0 0 1 5.858-5.858Z"/><path d="M18.787 7.071a4.142 4.142 0 1 1-5.858 5.858 4.142 4.142 0 0 1 5.858-5.858Z"/><path d="M12.929 1.213A4.142 4.142 0 1 1 7.07 7.071a4.142 4.142 0 0 1 5.858-5.858Z"/><path d="M7.071 7.071a4.142 4.142 0 1 1-5.858 5.858A4.142 4.142 0 0 1 7.071 7.07Z"/></mask><path d="M12.222 13.636a3.142 3.142 0 0 1 0 4.444l1.414 1.414a5.142 5.142 0 0 0 0-7.272l-1.414 1.414Zm0 4.444a3.142 3.142 0 0 1-4.444 0l-1.414 1.414a5.142 5.142 0 0 0 7.272 0l-1.414-1.414Zm-4.444 0a3.142 3.142 0 0 1 0-4.444l-1.414-1.414a5.142 5.142 0 0 0 0 7.272l1.414-1.414Zm0-4.444a3.142 3.142 0 0 1 4.444 0l1.414-1.414a5.142 5.142 0 0 0-7.272 0l1.414 1.414ZM18.08 7.778a3.142 3.142 0 0 1 0 4.444l1.414 1.414a5.142 5.142 0 0 0 0-7.272L18.08 7.778Zm0 4.444a3.142 3.142 0 0 1-4.444 0l-1.414 1.414a5.142 5.142 0 0 0 7.272 0l-1.414-1.414Zm-4.444 0a3.142 3.142 0 0 1 0-4.444l-1.414-1.414a5.142 5.142 0 0 0 0 7.272l1.414-1.414Zm0-4.444a3.142 3.142 0 0 1 4.444 0l1.414-1.414a5.142 5.142 0 0 0-7.272 0l1.414 1.414ZM12.222 1.92a3.142 3.142 0 0 1 0 4.444l1.414 1.414a5.142 5.142 0 0 0 0-7.272L12.222 1.92Zm0 4.444a3.142 3.142 0 0 1-4.444 0L6.364 7.778a5.142 5.142 0 0 0 7.272 0l-1.414-1.414Zm-4.444 0a3.142 3.142 0 0 1 0-4.444L6.364.506a5.142 5.142 0 0 0 0 7.272l1.414-1.414Zm0-4.444a3.142 3.142 0 0 1 4.444 0L13.636.506a5.142 5.142 0 0 0-7.272 0L7.778 1.92ZM6.364 7.778a3.142 3.142 0 0 1 0 4.444l1.414 1.414a5.142 5.142 0 0 0 0-7.272L6.364 7.778Zm0 4.444a3.142 3.142 0 0 1-4.444 0L.506 13.636a5.142 5.142 0 0 0 7.272 0l-1.414-1.414Zm-4.444 0a3.142 3.142 0 0 1 0-4.444L.506 6.364a5.142 5.142 0 0 0 0 7.272l1.414-1.414Zm0-4.444a3.142 3.142 0 0 1 4.444 0l1.414-1.414a5.142 5.142 0 0 0-7.272 0L1.92 7.778Z" fill="#fff" mask="url(#a)"/></svg>